<?xml version="1.0" encoding="UTF-8"?>
<svg width="420px" height="411px" viewBox="0 0 420 411" version="1.1" xmlns="http://www.w3.org/2000/svg" xmlns:xlink="http://www.w3.org/1999/xlink">
    <!-- Generator: Sketch 44.1 (41455) - http://www.bohemiancoding.com/sketch -->
    <title>Septagon</title>
    <desc>Created with Sketch.</desc>
    <defs></defs>
    <g id="Page-1" stroke="none" stroke-width="1" fill="none" fill-rule="evenodd">
        <g id="Septagon" transform="translate(1.000000, 1.000000)" stroke="#979797">
            <circle id="Oval" cx="295.5" cy="394.5" r="14.5"></circle>
            <circle id="Oval" cx="122.5" cy="394.5" r="14.5"></circle>
            <circle id="Oval" cx="14.5" cy="258.5" r="14.5"></circle>
            <circle id="Oval" cx="52.5" cy="89.5" r="14.5"></circle>
            <circle id="Oval" cx="209.5" cy="14.5" r="14.5"></circle>
            <circle id="Oval" cx="365.5" cy="89.5" r="14.5"></circle>
            <circle id="Oval" cx="403.5" cy="258.5" r="14.5"></circle>
            <path d="M310.5,375.5 L389.5,276.5" id="Line" fill="#979797" stroke-linecap="square"></path>
            <path id="Line-decoration-1" d="M389.5,276.5 L380.418782,283.070501 L385.108613,286.812891 L389.5,276.5 Z" fill="#979797" stroke-linecap="square"></path>
            <path d="M300.5,369.5 L361.5,113.5" id="Line" fill="#979797" stroke-linecap="square"></path>
            <path id="Line-decoration-1" d="M361.5,113.5 L356.078353,123.310491 L361.914945,124.701242 L361.5,113.5 Z" fill="#979797" stroke-linecap="square"></path>
            <path d="M289.5,369.5 L213.5,35.5" id="Line" fill="#979797" stroke-linecap="square"></path>
            <path id="Line-decoration-1" d="M213.5,35.5 L212.971007,46.6964354 L218.82146,45.3651947 L213.5,35.5 Z" fill="#979797" stroke-linecap="square"></path>
            <path d="M370.5,237.5 L398.5,112.5" id="Line" fill="#979797" stroke-linecap="square" transform="translate(384.500000, 175.000000) scale(-1, 1) translate(-384.500000, -175.000000) "></path>
            <path id="Line-decoration-1" d="M398.5,112.5 L393.211846,122.383088 L399.066755,123.694587 L398.5,112.5 Z" fill="#979797" stroke-linecap="square"></path>
            <path d="M222.5,237.5 L384.5,31.5" id="Line" fill="#979797" stroke-linecap="square" transform="translate(303.500000, 134.500000) scale(-1, 1) translate(-303.500000, -134.500000) "></path>
            <path id="Line-decoration-1" d="M384.5,31.5 L375.465727,38.1349016 L380.182048,41.8438529 L384.5,31.5 Z" fill="#979797" stroke-linecap="square"></path>
            <path d="M73.5,245.5 L378.5,98.5" id="Line" fill="#979797" stroke-linecap="square" transform="translate(226.000000, 172.000000) scale(-1, 1) translate(-226.000000, -172.000000) "></path>
            <path id="Line-decoration-1" d="M378.5,98.5 L367.468517,100.486553 L370.073542,105.891536 L378.5,98.5 Z" fill="#979797" stroke-linecap="square"></path>
            <path d="M227.5,80.5 L346.5,23.5" id="Line" fill="#979797" stroke-linecap="square" transform="translate(287.000000, 52.000000) scale(-1, 1) translate(-287.000000, -52.000000) "></path>
            <path id="Line-decoration-1" d="M346.5,23.5 L335.463747,25.4598784 L338.055698,30.8711437 L346.5,23.5 Z" fill="#979797" stroke-linecap="square"></path>
            <path d="M75.4981203,89.5 L341.5,89.5" id="Line" fill="#979797" stroke-linecap="square" transform="translate(208.500000, 89.500000) scale(-1, 1) translate(-208.500000, -89.500000) "></path>
            <path id="Line-decoration-1" d="M341.5,89.5 L330.7,86.5 L330.7,92.5 L341.5,89.5 Z" fill="#979797" stroke-linecap="square"></path>
            <path d="M37.5,100.5 L344.5,248.5" id="Line" fill="#979797" stroke-linecap="square" transform="translate(191.000000, 174.500000) scale(-1, 1) translate(-191.000000, -174.500000) "></path>
            <path id="Line-decoration-1" d="M344.5,248.5 L336.074247,241.10766 L333.468707,246.512395 L344.5,248.5 Z" fill="#979797" stroke-linecap="square"></path>
            <path d="M70.5,80.5 L190.5,23.5" id="Line" fill="#979797" stroke-linecap="square" transform="translate(130.500000, 52.000000) scale(-1, -1) translate(-130.500000, -52.000000) "></path>
            <path id="Line-decoration-1" d="M190.5,23.5 L179.457433,25.4239811 L182.031773,30.8436461 L190.5,23.5 Z" fill="#979797" stroke-linecap="square"></path>
            <path d="M28.5,239.5 L194.5,31.5" id="Line" fill="#979797" stroke-linecap="square" transform="translate(111.500000, 135.500000) scale(-1, -1) translate(-111.500000, -135.500000) "></path>
            <path id="Line-decoration-1" d="M194.5,31.5 L185.418392,38.0699617 L190.108001,41.8126303 L194.5,31.5 Z" fill="#979797" stroke-linecap="square"></path>
            <path d="M126.5,373.5 L202.5,34.5" id="Line" fill="#979797" stroke-linecap="square" transform="translate(164.500000, 204.000000) scale(-1, -1) translate(-164.500000, -204.000000) "></path>
            <path id="Line-decoration-1" d="M202.5,34.5 L197.210069,44.3821369 L203.064743,45.6946892 L202.5,34.5 Z" fill="#979797" stroke-linecap="square"></path>
            <path d="M144.5,394.5 L269.5,394.5" id="Line" fill="#979797" stroke-linecap="square"></path>
            <path id="Line-decoration-1" d="M269.5,394.5 L258.7,391.5 L258.7,397.5 L269.5,394.5 Z" fill="#979797" stroke-linecap="square"></path>
            <path d="M142.5,384.5 L382.5,269.5" id="Line" fill="#979797" stroke-linecap="square"></path>
            <path id="Line-decoration-1" d="M382.5,269.5 L371.464026,271.46145 L374.056747,276.872346 L382.5,269.5 Z" fill="#979797" stroke-linecap="square"></path>
            <path d="M136.5,376.5 L349.5,109.5" id="Line" fill="#979797" stroke-linecap="square"></path>
            <path id="Line-decoration-1" d="M349.5,109.5 L340.419693,116.07176 L345.110043,119.8135 L349.5,109.5 Z" fill="#979797" stroke-linecap="square"></path>
            <path d="M27.5,274.5 L108.5,376.5" id="Line" fill="#979797" stroke-linecap="square"></path>
            <path id="Line-decoration-1" d="M108.5,376.5 L104.133005,366.176756 L99.4343403,369.908049 L108.5,376.5 Z" fill="#979797" stroke-linecap="square"></path>
            <path d="M34.5,267.5 L271.5,382.5" id="Line" fill="#979797" stroke-linecap="square"></path>
            <path id="Line-decoration-1" d="M271.5,382.5 L263.09313,375.086193 L260.473813,380.484264 L271.5,382.5 Z" fill="#979797" stroke-linecap="square"></path>
            <path d="M37.5,258.5 L380.5,258.5" id="Line" fill="#979797" stroke-linecap="square"></path>
            <path id="Line-decoration-1" d="M380.5,258.5 L369.7,255.5 L369.7,261.5 L380.5,258.5 Z" fill="#979797" stroke-linecap="square"></path>
            <path d="M47.5,110.5 L19.5,237.5" id="Line" fill="#979797" stroke-linecap="square"></path>
            <path id="Line-decoration-1" d="M19.5,237.5 L24.7549023,227.599192 L18.895617,226.307381 L19.5,237.5 Z" fill="#979797" stroke-linecap="square"></path>
            <path d="M56.5,108.5 L116.5,372.5" id="Line" fill="#979797" stroke-linecap="square"></path>
            <path id="Line-decoration-1" d="M116.5,372.5 L117.031891,361.303702 L111.181094,362.633428 L116.5,372.5 Z" fill="#979797" stroke-linecap="square"></path>
            <path d="M66.5,104.5 L280.5,375.5" id="Line" fill="#979797" stroke-linecap="square"></path>
            <path id="Line-decoration-1" d="M280.5,375.5 L276.161254,365.164852 L271.452402,368.883281 L280.5,375.5 Z" fill="#979797" stroke-linecap="square"></path>
        </g>
    </g>
</svg>