<?xml version="1.0" encoding="UTF-8"?>
<svg width="412px" height="392px" viewBox="0 0 412 392" version="1.1" xmlns="http://www.w3.org/2000/svg" xmlns:xlink="http://www.w3.org/1999/xlink">
    <!-- Generator: Sketch 44.1 (41455) - http://www.bohemiancoding.com/sketch -->
    <title>Pentagon</title>
    <desc>Created with Sketch.</desc>
    <defs></defs>
    <g id="Page-1" stroke="none" stroke-width="1" fill="none" fill-rule="evenodd">
        <g id="Pentagon" transform="translate(1.000000, 1.000000)" stroke="#979797">
            <circle id="Oval" cx="87.5" cy="375.5" r="14.5"></circle>
            <circle id="Oval" cx="14.5" cy="152.5" r="14.5"></circle>
            <circle id="Oval" cx="205.5" cy="14.5" r="14.5"></circle>
            <circle id="Oval" cx="395.5" cy="152.5" r="14.5"></circle>
            <circle id="Oval" cx="322.5" cy="375.5" r="14.5"></circle>
            <path d="M377.5,139.5 L223.5,27.5" id="Line" fill="#979797" stroke-linecap="square"></path>
            <path id="Line-decoration-1" d="M223.5,27.5 L230.469835,36.2784626 L233.998865,31.4260461 L223.5,27.5 Z" fill="#979797" stroke-linecap="square"></path>
            <path d="M372.505988,152.5 L38.5,152.5" id="Line" fill="#979797" stroke-linecap="square"></path>
            <path id="Line-decoration-1" d="M38.5,152.5 L49.3,155.5 L49.3,149.5 L38.5,152.5 Z" fill="#979797" stroke-linecap="square"></path>
            <path d="M189.5,25.5 L31.5,140.5" id="Line" fill="#979797" stroke-linecap="square"></path>
            <path id="Line-decoration-1" d="M31.5,140.5 L41.997387,136.570004 L38.4665315,131.718916 L31.5,140.5 Z" fill="#979797" stroke-linecap="square"></path>
            <path d="M199.5,35.5 L96.5,356.5" id="Line" fill="#979797" stroke-linecap="square"></path>
            <path id="Line-decoration-1" d="M96.5,356.5 L102.656262,347.133013 L96.9431654,345.299839 L96.5,356.5 Z" fill="#979797" stroke-linecap="square"></path>
            <path d="M21.5,172.5 L80.5,354.5" id="Line" fill="#979797" stroke-linecap="square"></path>
            <path id="Line-decoration-1" d="M80.5,354.5 L80.0233225,343.301215 L74.3157369,345.151477 L80.5,354.5 Z" fill="#979797" stroke-linecap="square"></path>
            <path d="M31.5,165.5 L300.5,360.5" id="Line" fill="#979797" stroke-linecap="square"></path>
            <path id="Line-decoration-1" d="M300.5,360.5 L293.516576,351.732344 L289.995066,356.590222 L300.5,360.5 Z" fill="#979797" stroke-linecap="square"></path>
            <path d="M106.5,375.5 L299.502591,375.5" id="Line" fill="#979797" stroke-linecap="square"></path>
            <path id="Line-decoration-1" d="M299.502591,375.5 L288.702591,372.5 L288.702591,378.5 L299.502591,375.5 Z" fill="#979797" stroke-linecap="square"></path>
            <path d="M105.5,362.5 L374.5,166.5" id="Line" fill="#979797" stroke-linecap="square"></path>
            <path id="Line-decoration-1" d="M374.5,166.5 L364.004608,170.435321 L367.537925,175.284618 L374.5,166.5 Z" fill="#979797" stroke-linecap="square"></path>
            <path d="M330.5,352.5 L387.5,175.5" id="Line" fill="#979797" stroke-linecap="square"></path>
            <path id="Line-decoration-1" d="M387.5,175.5 L381.33388,184.8605 L387.045043,186.699688 L387.5,175.5 Z" fill="#979797" stroke-linecap="square"></path>
            <path d="M313.5,350.5 L213.5,36.5" id="Line" fill="#979797" stroke-linecap="square"></path>
            <path id="Line-decoration-1" d="M213.5,36.5 L213.918767,47.7010997 L219.635843,45.8803748 L213.5,36.5 Z" fill="#979797" stroke-linecap="square"></path>
        </g>
    </g>
</svg>