<?xml version="1.0" encoding="UTF-8"?>
<svg width="425px" height="420px" viewBox="0 0 425 420" version="1.1" xmlns="http://www.w3.org/2000/svg" xmlns:xlink="http://www.w3.org/1999/xlink">
    <!-- Generator: Sketch 44.1 (41455) - http://www.bohemiancoding.com/sketch -->
    <title>Nonagon</title>
    <desc>Created with Sketch.</desc>
    <defs></defs>
    <g id="Page-1" stroke="none" stroke-width="1" fill="none" fill-rule="evenodd">
        <g id="Nonagon" transform="translate(1.000000, 1.000000)" stroke="#979797">
            <circle id="Oval" cx="14.5" cy="180.5" r="14.5"></circle>
            <circle id="Oval" cx="82.5" cy="62.5" r="14.5"></circle>
            <circle id="Oval" cx="211.5" cy="14.5" r="14.5"></circle>
            <circle id="Oval" cx="339.5" cy="62.5" r="14.5"></circle>
            <circle id="Oval" cx="408.5" cy="180.5" r="14.5"></circle>
            <circle id="Oval" cx="384.5" cy="314.5" r="14.5"></circle>
            <circle id="Oval" cx="278.5" cy="403.5" r="14.5"></circle>
            <circle id="Oval" cx="142.5" cy="403.5" r="14.5"></circle>
            <circle id="Oval" cx="37.5" cy="314.5" r="14.5"></circle>
            <path d="M153.5,383.5 L328.5,81.5" id="Line" fill="#979797" stroke-linecap="square"></path>
            <path id="Line-decoration-1" d="M328.5,81.5 L320.489459,89.3403596 L325.68084,92.3486098 L328.5,81.5 Z" fill="#979797" stroke-linecap="square"></path>
            <path d="M160.5,387.5 L389.5,196.5" id="Line" fill="#979797" stroke-linecap="square"></path>
            <path id="Line-decoration-1" d="M389.5,196.5 L379.284637,201.113714 L383.127722,205.721392 L389.5,196.5 Z" fill="#979797" stroke-linecap="square"></path>
            <path d="M37.5,179.5 L385.512931,179.5" id="Line" fill="#979797" stroke-linecap="square" transform="translate(211.500000, 179.500000) scale(-1, 1) translate(-211.500000, -179.500000) "></path>
            <path id="Line-decoration-1" d="M385.512931,179.5 L374.712931,176.5 L374.712931,182.5 L385.512931,179.5 Z" fill="#979797" stroke-linecap="square"></path>
            <path d="M106.5,172.5 L386.5,69.5" id="Line" fill="#979797" stroke-linecap="square" transform="translate(246.500000, 121.000000) scale(-1, 1) translate(-246.500000, -121.000000) "></path>
            <path id="Line-decoration-1" d="M386.5,69.5 L375.328323,70.4130407 L377.399759,76.0441288 L386.5,69.5 Z" fill="#979797" stroke-linecap="square"></path>
            <path d="M36.5,70.5 L317.5,172.5" id="Line" fill="#979797" stroke-linecap="square" transform="translate(177.000000, 121.500000) scale(-1, 1) translate(-177.000000, -121.500000) "></path>
            <path id="Line-decoration-1" d="M317.5,172.5 L308.371741,165.995011 L306.324506,171.634943 L317.5,172.5 Z" fill="#979797" stroke-linecap="square"></path>
            <path d="M62.4983278,315.5 L361.5,315.5" id="Line" fill="#979797" stroke-linecap="square" transform="translate(212.000000, 315.500000) scale(1, -1) translate(-212.000000, -315.500000) "></path>
            <path id="Line-decoration-1" d="M361.5,315.5 L350.7,312.5 L350.7,318.5 L361.5,315.5 Z" fill="#979797" stroke-linecap="square"></path>
            <path d="M36.5,307.5 L362.5,188.5" id="Line" fill="#979797" stroke-linecap="square" transform="translate(199.500000, 248.000000) scale(1, -1) translate(-199.500000, -248.000000) "></path>
            <path id="Line-decoration-1" d="M362.5,188.5 L351.326083,189.3852 L353.383481,195.021432 L362.5,188.5 Z" fill="#979797" stroke-linecap="square"></path>
            <path d="M32.5,388.5 L259.5,195.5" id="Line" fill="#979797" stroke-linecap="square" transform="translate(146.000000, 292.000000) scale(1, -1) translate(-146.000000, -292.000000) "></path>
            <path id="Line-decoration-1" d="M259.5,195.5 L249.328712,200.210086 L253.215187,204.781225 L259.5,195.5 Z" fill="#979797" stroke-linecap="square"></path>
            <path d="M265.5,383.5 L94.5,81.5" id="Line" fill="#979797" stroke-linecap="square" transform="translate(180.000000, 232.500000) scale(-1, -1) translate(-180.000000, -232.500000) "></path>
            <path id="Line-decoration-1" d="M94.5,81.5 L97.210834,92.376184 L102.431956,89.4198536 L94.5,81.5 Z" fill="#979797" stroke-linecap="square"></path>
            <path d="M138.5,380.5 L86.5,84.5" id="Line" fill="#979797" stroke-linecap="square" transform="translate(112.500000, 232.500000) scale(-1, -1) translate(-112.500000, -232.500000) "></path>
            <path id="Line-decoration-1" d="M86.5,84.5 L85.4139291,95.6561844 L91.3234326,94.6180284 L86.5,84.5 Z" fill="#979797" stroke-linecap="square"></path>
            <path d="M294.5,389.5 L368.5,328.5" id="Line" fill="#979797" stroke-linecap="square"></path>
            <path id="Line-decoration-1" d="M368.5,328.5 L358.258187,333.054697 L362.074623,337.684472 L368.5,328.5 Z" fill="#979797" stroke-linecap="square"></path>
            <path d="M289.5,384.5 L395.5,201.5" id="Line" fill="#979797" stroke-linecap="square"></path>
            <path id="Line-decoration-1" d="M395.5,201.5 L387.49084,209.34177 L392.68275,212.349106 L395.5,201.5 Z" fill="#979797" stroke-linecap="square"></path>
            <path d="M283.5,382.5 L335.5,84.5" id="Line" fill="#979797" stroke-linecap="square"></path>
            <path id="Line-decoration-1" d="M335.5,84.5 L330.688145,94.6235396 L336.598832,95.6549347 L335.5,84.5 Z" fill="#979797" stroke-linecap="square"></path>
            <path d="M274.5,381.5 L214.5,37.5" id="Line" fill="#979797" stroke-linecap="square"></path>
            <path id="Line-decoration-1" d="M214.5,37.5 L213.400323,48.6548514 L219.311088,47.623904 L214.5,37.5 Z" fill="#979797" stroke-linecap="square"></path>
            <path d="M387.5,293.5 L403.5,203.5" id="Line" fill="#979797" stroke-linecap="square"></path>
            <path id="Line-decoration-1" d="M403.5,203.5 L398.655952,213.608175 L404.563328,214.658375 L403.5,203.5 Z" fill="#979797" stroke-linecap="square"></path>
            <path d="M365.5,299.5 L99.5,76.5" id="Line" fill="#979797" stroke-linecap="square"></path>
            <path id="Line-decoration-1" d="M99.5,76.5 L105.849005,85.737431 L109.703697,81.1394582 L99.5,76.5 Z" fill="#979797" stroke-linecap="square"></path>
            <path d="M379.5,292.5 L342.5,83.5" id="Line" fill="#979797" stroke-linecap="square"></path>
            <path id="Line-decoration-1" d="M342.5,83.5 L341.428621,94.6576049 L347.336752,93.6116678 L342.5,83.5 Z" fill="#979797" stroke-linecap="square"></path>
            <path d="M372.5,294.5 L222.5,34.5" id="Line" fill="#979797" stroke-linecap="square"></path>
            <path id="Line-decoration-1" d="M222.5,34.5 L225.298446,45.3539717 L230.495559,42.355637 L222.5,34.5 Z" fill="#979797" stroke-linecap="square"></path>
            <path d="M349.5,164.5 L398.5,79.5" id="Line" fill="#979797" stroke-linecap="square" transform="translate(374.000000, 122.000000) scale(-1, 1) translate(-374.000000, -122.000000) "></path>
            <path id="Line-decoration-1" d="M398.5,79.5 L390.507109,87.3583515 L395.70524,90.3549213 L398.5,79.5 Z" fill="#979797" stroke-linecap="square"></path>
            <path d="M229.5,166.5 L391.5,30.5" id="Line" fill="#979797" stroke-linecap="square" transform="translate(310.500000, 98.500000) scale(-1, 1) translate(-310.500000, -98.500000) "></path>
            <path id="Line-decoration-1" d="M391.5,30.5 L381.299465,35.146406 L385.157287,39.7417526 L391.5,30.5 Z" fill="#979797" stroke-linecap="square"></path>
            <path d="M231.5,54.5 L319.5,22.5" id="Line" fill="#979797" stroke-linecap="square" transform="translate(275.500000, 38.500000) scale(-1, 1) translate(-275.500000, -38.500000) "></path>
            <path id="Line-decoration-1" d="M319.5,22.5 L308.325002,23.3714448 L310.37546,29.0102054 L319.5,22.5 Z" fill="#979797" stroke-linecap="square"></path>
            <path d="M57.5,76.5 L321.5,299.5" id="Line" fill="#979797" stroke-linecap="square" transform="translate(189.500000, 188.000000) scale(-1, 1) translate(-189.500000, -188.000000) "></path>
            <path id="Line-decoration-1" d="M321.5,299.5 L315.185384,290.239027 L311.313624,294.822635 L321.5,299.5 Z" fill="#979797" stroke-linecap="square"></path>
            <path d="M108.497585,61.5 L315.509661,61.5" id="Line" fill="#979797" stroke-linecap="square" transform="translate(212.000000, 61.500000) scale(-1, 1) translate(-212.000000, -61.500000) "></path>
            <path id="Line-decoration-1" d="M315.509661,61.5 L304.709661,58.5 L304.709661,64.5 L315.509661,61.5 Z" fill="#979797" stroke-linecap="square"></path>
            <path d="M105.5,53.5 L192.5,22.5" id="Line" fill="#979797" stroke-linecap="square" transform="translate(149.000000, 38.000000) scale(-1, -1) translate(-149.000000, -38.000000) "></path>
            <path id="Line-decoration-1" d="M192.5,22.5 L181.319593,23.2990645 L183.333496,28.9509843 L192.5,22.5 Z" fill="#979797" stroke-linecap="square"></path>
            <path d="M32.5,165.5 L194.5,30.5" id="Line" fill="#979797" stroke-linecap="square" transform="translate(113.500000, 98.000000) scale(-1, -1) translate(-113.500000, -98.000000) "></path>
            <path id="Line-decoration-1" d="M194.5,30.5 L184.282657,35.1093277 L188.123763,39.7186554 L194.5,30.5 Z" fill="#979797" stroke-linecap="square"></path>
            <path d="M50.5,294.5 L199.5,35.5" id="Line" fill="#979797" stroke-linecap="square" transform="translate(125.000000, 165.000000) scale(-1, -1) translate(-125.000000, -165.000000) "></path>
            <path id="Line-decoration-1" d="M199.5,35.5 L191.514081,43.3654372 L196.714868,46.3573957 L199.5,35.5 Z" fill="#979797" stroke-linecap="square"></path>
            <path d="M146.5,380.5 L205.5,36.5" id="Line" fill="#979797" stroke-linecap="square" transform="translate(176.000000, 208.500000) scale(-1, -1) translate(-176.000000, -208.500000) "></path>
            <path id="Line-decoration-1" d="M205.5,36.5 L200.717506,46.6374431 L206.631158,47.6517031 L205.5,36.5 Z" fill="#979797" stroke-linecap="square"></path>
            <path d="M24.5,161.5 L72.5,80.5" id="Line" fill="#979797" stroke-linecap="square" transform="translate(48.500000, 121.000000) scale(-1, -1) translate(-48.500000, -121.000000) "></path>
            <path id="Line-decoration-1" d="M72.5,80.5 L64.4132596,88.2617414 L69.5750088,91.3205557 L72.5,80.5 Z" fill="#979797" stroke-linecap="square"></path>
            <path d="M41.5,292.5 L79.5,83.5" id="Line" fill="#979797" stroke-linecap="square" transform="translate(60.500000, 188.000000) scale(-1, -1) translate(-60.500000, -188.000000) "></path>
            <path id="Line-decoration-1" d="M79.5,83.5 L74.6164275,93.5891387 L80.519647,94.6624513 L79.5,83.5 Z" fill="#979797" stroke-linecap="square"></path>
            <path d="M17.5,291.5 L33.5,202.5" id="Line" fill="#979797" stroke-linecap="square" transform="translate(25.500000, 247.000000) scale(1, -1) translate(-25.500000, -247.000000) "></path>
            <path id="Line-decoration-1" d="M33.5,202.5 L28.6363958,212.59878 L34.541727,213.660412 L33.5,202.5 Z" fill="#979797" stroke-linecap="square"></path>
            <path d="M25.5,383.5 L131.5,200.5" id="Line" fill="#979797" stroke-linecap="square" transform="translate(78.500000, 292.000000) scale(1, -1) translate(-78.500000, -292.000000) "></path>
            <path id="Line-decoration-1" d="M131.5,200.5 L123.49084,208.34177 L128.68275,211.349106 L131.5,200.5 Z" fill="#979797" stroke-linecap="square"></path>
            <path d="M53.5,388.5 L126.5,328.5" id="Line" fill="#979797" stroke-linecap="square" transform="translate(90.000000, 358.500000) scale(1, -1) translate(-90.000000, -358.500000) "></path>
            <path id="Line-decoration-1" d="M126.5,328.5 L116.251664,333.04 L120.061454,337.675245 L126.5,328.5 Z" fill="#979797" stroke-linecap="square"></path>
            <path d="M60.5,189.5 L386.5,308.5" id="Line" fill="#979797" stroke-linecap="square" transform="translate(223.500000, 249.000000) scale(1, -1) translate(-223.500000, -249.000000) "></path>
            <path id="Line-decoration-1" d="M386.5,308.5 L377.383481,301.978568 L375.326083,307.6148 L386.5,308.5 Z" fill="#979797" stroke-linecap="square"></path>
            <path d="M61.5,395.5 L256.5,323.5" id="Line" fill="#979797" stroke-linecap="square" transform="translate(159.000000, 359.500000) scale(1, -1) translate(-159.000000, -359.500000) "></path>
            <path id="Line-decoration-1" d="M256.5,323.5 L245.329436,324.426551 L247.40768,330.05513 L256.5,323.5 Z" fill="#979797" stroke-linecap="square"></path>
            <path d="M164.5,402.5 L256.5,403.5" id="Line" fill="#979797" stroke-linecap="square"></path>
            <path id="Line-decoration-1" d="M256.5,403.5 L245.733245,400.382793 L245.668031,406.382438 L256.5,403.5 Z" fill="#979797" stroke-linecap="square"></path>
            <path d="M163.5,394.5 L363.5,322.5" id="Line" fill="#979797" stroke-linecap="square"></path>
            <path id="Line-decoration-1" d="M363.5,322.5 L352.322258,323.335508 L354.354574,328.980832 L363.5,322.5 Z" fill="#979797" stroke-linecap="square"></path>
        </g>
    </g>
</svg>